<svg width="40" height="40" viewBox="0 0 40 40" fill="none" xmlns="http://www.w3.org/2000/svg">
<path d="M37.21 24.88C37.21 28.8267 36.05 32 33.73 34.4C31.41 36.8 28.1967 38 24.09 38H11.85V33.44H14.65V16.56H11.85V12H23.77C28.2233 12 31.57 13.1867 33.81 15.56C36.0767 17.9333 37.21 21.04 37.21 24.88ZM31.45 24.96C31.45 19.36 28.85 16.56 23.65 16.56H20.01V33.44H23.65C26.1567 33.44 28.0767 32.7733 29.41 31.44C30.77 30.1067 31.45 27.9467 31.45 24.96Z" fill="#FFA629"/>
<path fill-rule="evenodd" clip-rule="evenodd" d="M27.7969 11.3961C27.3019 9.11388 26.2862 7.16851 24.75 5.56C22.51 3.18667 19.1633 2 14.71 2H2.79001V6.56H5.59001V23.44H2.79001V28H13.59V23.44H10.95V6.56H14.59C18.3706 6.56 20.7768 8.04 21.8088 11H23.71C25.1954 11 26.5577 11.132 27.7969 11.3961ZM20.95 20.7373V26.93C22.3748 26.3349 23.6148 25.4916 24.67 24.4C26.2989 22.7149 27.356 20.6486 27.8412 18.201C26.6996 17.7507 25.2825 17.56 23.59 17.56H22.1835C21.9576 18.8443 21.5464 19.9034 20.95 20.7373Z" fill="#166879"/>
</svg>
